# xmcd CD database file
#
# Track frame offsets:
#	150
#	15808
#	25356
#	34964
#	47529
#	59422
#	66750
#	80659
#	99596
#	111012
#
# Disc length: 1774 seconds
#
# Revision: 0
# Processed by: cddbd v1.5.2PL0 Copyright (c) Steve Scherf et al.
# Submitted via: CDex 1.51
#
DISCID=7906ec0a
DTITLE=S.E.N.S - Forgiving
DYEAR=2009
DGENRE=New Age
TTITLE0=For Me
TTITLE1=Nightmare
TTITLE2=Extremity
TTITLE3=Despair
TTITLE4=Emptiness
TTITLE5=Why
TTITLE6=Forgiving-Guitar
TTITLE7=Memory Of Happiness
TTITLE8=Mercy
TTITLE9=Forgiving
EXTD=YEAR: 2009
EXTT0=
EXTT1=
EXTT2=
EXTT3=
EXTT4=
EXTT5=
EXTT6=
EXTT7=
EXTT8=
EXTT9=
PLAYORDER=
